<svg width="15" height="15" viewBox="0 0 15 15" fill="none" xmlns="http://www.w3.org/2000/svg">
<path d="M10.8144 1.40625H4.18563C3.44849 1.40625 2.74154 1.69908 2.22031 2.22031C1.69908 2.74154 1.40625 3.44849 1.40625 4.18563V10.8144C1.40625 11.5515 1.69908 12.2585 2.22031 12.7797C2.74154 13.3009 3.44849 13.5938 4.18563 13.5938H10.8144C11.5515 13.5938 12.2585 13.3009 12.7797 12.7797C13.3009 12.2585 13.5938 11.5515 13.5938 10.8144V4.18563C13.5938 3.44849 13.3009 2.74154 12.7797 2.22031C12.2585 1.69908 11.5515 1.40625 10.8144 1.40625ZM5.52688 11.245C5.52883 11.279 5.52382 11.3131 5.51214 11.3451C5.50045 11.3771 5.48235 11.4064 5.45893 11.4311C5.43552 11.4559 5.40729 11.4756 5.37599 11.4891C5.34468 11.5025 5.31095 11.5094 5.27688 11.5094H4.16438C4.09729 11.5077 4.03351 11.4798 3.98677 11.4317C3.94002 11.3836 3.91403 11.319 3.91438 11.2519V6.625C3.91346 6.5916 3.91924 6.55835 3.9314 6.52722C3.94355 6.49609 3.96182 6.46771 3.98512 6.44376C4.00843 6.41981 4.0363 6.40078 4.06709 6.38779C4.09788 6.3748 4.13096 6.36811 4.16438 6.36812H5.27688C5.31029 6.36811 5.34337 6.3748 5.37416 6.38779C5.40495 6.40078 5.43282 6.41981 5.45613 6.44376C5.47943 6.46771 5.4977 6.49609 5.50986 6.52722C5.52201 6.55835 5.52779 6.5916 5.52688 6.625V11.245ZM4.7 5.395C4.57955 5.3941 4.46046 5.36948 4.34953 5.32255C4.2386 5.27563 4.13799 5.20731 4.05346 5.1215C3.96893 5.03569 3.90213 4.93408 3.85687 4.82245C3.81161 4.71083 3.78878 4.59138 3.78969 4.47094C3.79059 4.35049 3.81521 4.2314 3.86214 4.12047C3.90906 4.00954 3.97738 3.90893 4.06319 3.8244C4.14899 3.73987 4.25061 3.67307 4.36223 3.62781C4.47386 3.58255 4.5933 3.55972 4.71375 3.56063C4.95282 3.5684 5.17939 3.6693 5.34512 3.84179C5.51084 4.01428 5.60259 4.2447 5.6008 4.48389C5.599 4.72309 5.5038 4.95211 5.33551 5.12209C5.16722 5.29208 4.93916 5.38956 4.7 5.39375M11.4606 11.2375C11.4603 11.3007 11.4355 11.3612 11.3915 11.4065C11.3474 11.4517 11.2875 11.4781 11.2244 11.48H10.05C9.98677 11.4781 9.92677 11.4516 9.88269 11.4062C9.8386 11.3609 9.81388 11.3001 9.81375 11.2369V9.09688C9.81375 8.7775 9.91125 7.7075 8.96625 7.7075C8.22937 7.7075 8.08375 8.4575 8.05562 8.79125V11.2856C8.05566 11.349 8.03101 11.4099 7.9869 11.4554C7.9428 11.5009 7.88271 11.5274 7.81938 11.5294H6.68C6.61546 11.5292 6.55362 11.5035 6.50805 11.4578C6.46247 11.4121 6.43687 11.3502 6.43687 11.2856V6.6025C6.43882 6.53916 6.46536 6.47907 6.51087 6.43497C6.55637 6.39087 6.61726 6.36622 6.68062 6.36625H7.81938C7.88274 6.36622 7.94363 6.39087 7.98913 6.43497C8.03464 6.47907 8.06118 6.53916 8.06313 6.6025V7.00562C8.22939 6.76226 8.45895 6.56892 8.72704 6.44644C8.99512 6.32396 9.29156 6.277 9.58438 6.31063C11.4812 6.31063 11.4744 8.0825 11.4744 9.09L11.4606 11.2375Z" fill="white"/>
</svg>
